<svg id="_x33_0" enable-background="new 0 0 64 64" height="512" viewBox="0 0 64 64" width="512" xmlns="http://www.w3.org/2000/svg" xmlns:xlink="http://www.w3.org/1999/xlink"><linearGradient id="SVGID_1_" gradientUnits="userSpaceOnUse" x1="32" x2="32" y1="63" y2="1"><stop offset="0" stop-color="#9f2fff"/><stop offset="1" stop-color="#0bb1d3"/></linearGradient><path d="m34.764 12h-5.528c-.381 0-.724.212-.894.553l-.447.895-1.789-.895.447-.895c.511-1.022 1.539-1.658 2.683-1.658h5.528c1.144 0 2.171.636 2.683 1.658l.447.895-1.789.895-.447-.895c-.17-.341-.513-.553-.894-.553zm13.943 23.879c-1.085 1.085-1.707 2.587-1.707 4.121h2c0-1.008.409-1.994 1.121-2.707l.586-.586-1.414-1.414zm3.293 6.699c0 .152.029.301.085.442l.818 2.047c.57 1.425 1.639 2.586 3.011 3.271.866.433 1.834.662 2.799.662h2.287c1.103 0 2 .897 2 2v2c0 1.103-.897 2-2 2h-2.601c-.481 0-.915.268-1.13.698-.135.27-.169.579-.096.872l.744 2.975c.055.223.083.448.083.674 0 1.533-1.248 2.781-2.781 2.781h-.647c-1.399 0-2.586-1.047-2.759-2.436l-.596-4.767c-.01-.082-.061-.125-.101-.146s-.102-.038-.177-.003c-.053.026-.089.072-.103.126l-1.109 4.438-3.631-.908c-1.234-.308-2.096-1.412-2.096-2.684 0-.626.215-1.239.606-1.729l1.066-1.332c1.29-1.611 1.461-3.812.437-5.604-1.157-2.025-3.002-3.579-5.195-4.377l-5.376-1.955c-2.274-.826-4.801-.826-7.075 0l-5.376 1.955c-2.193.798-4.038 2.352-5.195 4.377-1.024 1.793-.853 3.993.437 5.604l1.065 1.331c.391.491.606 1.104.606 1.73 0 1.271-.862 2.376-2.096 2.685l-3.632.908-1.109-4.438c-.014-.054-.05-.1-.1-.124-.077-.039-.14-.021-.18.001-.041.021-.091.064-.101.146l-.596 4.767c-.172 1.388-1.359 2.435-2.758 2.435h-.647c-1.533 0-2.781-1.248-2.781-2.781 0-.226.028-.451.083-.673l.744-2.976c.073-.293.039-.603-.096-.872-.215-.43-.648-.698-1.13-.698h-2.601c-1.103 0-2-.897-2-2v-2c0-1.103.897-2 2-2h2.287c.965 0 1.933-.229 2.798-.661 1.372-.686 2.441-1.847 3.011-3.271l.818-2.047c.057-.142.086-.291.086-.443 0-.513-.327-.967-.813-1.128-.895-.299-1.827-.45-2.771-.45h-4.416c-1.654 0-3-1.346-3-3s1.346-3 3-3h.438c.344 0 .628-.27.646-.613.003-.064-.002-.128-.018-.189l-1.92-6.555c-.097-.33-.146-.674-.146-1.02 0-1.383.768-2.626 2.005-3.243l.14-.07c.402-.203.856-.31 1.311-.31 1.38 0 2.556.94 2.859 2.287l1.437 6.375c.074.368.589.418.738.122.334-.667.51-1.414.51-2.16v-2.21c0-1.331 1.083-2.414 2.414-2.414.635 0 1.257.258 1.707.706l.265.266c1.041 1.04 1.614 2.424 1.614 3.896 0 1.805.596 3.594 1.679 5.037.838 1.118 2.542 1.412 3.708.635l1.832-1.221c.096-.063.185-.137.266-.219.332-.332.515-.773.515-1.242v-16.32c-.233-.101-.466-.203-.712-.273l-2.628-.751c-1.567-.447-2.696-1.784-2.876-3.404l-.557-5.013c-.151-1.355-.227-2.733-.227-4.097 0-1.103.897-2 2-2h1.279c.862 0 1.625.55 1.897 1.367l.545 1.633h.661l.447-.895c.341-.681 1.026-1.105 1.789-1.105h1.382c1.103 0 2 .897 2 2v2h2v-2c0-1.103.897-2 2-2h1.382c.763 0 1.448.424 1.789 1.105l.447.895h.661l.544-1.633c.273-.817 1.036-1.367 1.898-1.367h1.279c1.103 0 2 .897 2 2 0 1.364-.076 2.742-.227 4.098l-.557 5.013c-.18 1.62-1.309 2.957-2.876 3.404l-2.627.751c-.246.07-.479.173-.712.273v16.319c0 .469.183.909.514 1.241.083.083.172.156.268.22l1.832 1.221c1.165.776 2.869.483 3.708-.635 1.081-1.443 1.677-3.232 1.677-5.037 0-1.473.573-2.856 1.614-3.896l.265-.265c.45-.449 1.072-.707 1.707-.707 1.331 0 2.414 1.083 2.414 2.414v2.21c0 .746.176 1.493.51 2.16.147.297.667.229.733-.099l1.442-6.398c.303-1.347 1.479-2.287 2.859-2.287.455 0 .909.107 1.313.311l.139.069c1.236.617 2.004 1.86 2.004 3.243 0 .346-.049.689-.146 1.021l-1.931 6.591c-.005.024-.011.088-.008.152.019.343.302.613.647.613h.438c1.654 0 3 1.346 3 3s-1.346 3-3 3h-4.416c-.944 0-1.876.151-2.771.449-.486.162-.813.616-.813 1.129zm-12.097-5.148-1.354 3.161 1.878.683 1.373-3.298c-.667-.047-1.309-.231-1.897-.546zm-11.903-19.481v4.051h8v-4.051c-.206.224-.403.459-.574.715-.558.837-1.491 1.336-2.496 1.336h-1.86c-1.005 0-1.938-.499-2.496-1.336-.171-.256-.367-.491-.574-.715zm0 8.051h8v-2h-8zm0 4h8v-2h-8zm-2.163-15.658c1.799.514 3.362 1.655 4.401 3.213.186.279.497.445.832.445h1.859c.335 0 .646-.166.832-.445 1.039-1.558 2.602-2.699 4.401-3.213l2.627-.751c.784-.224 1.348-.892 1.438-1.701l.558-5.013c.143-1.282.215-2.586.215-3.877h-1.279l-.544 1.633c-.273.817-1.036 1.367-1.898 1.367h-.661c-.763 0-1.448-.424-1.789-1.105l-.447-.895h-1.382v2c0 1.103-.897 2-2 2h-2c-1.103 0-2-.897-2-2v-2h-1.382l-.447.895c-.341.681-1.026 1.105-1.789 1.105h-.661c-.862 0-1.625-.55-1.897-1.367l-.545-1.633h-1.279c0 1.291.072 2.595.214 3.877l.557 5.013c.09.81.654 1.478 1.438 1.701zm-17.421 24.658c.67 0 1.334.069 1.989.193l6.895-4.309c-.841-1.53-1.3-3.266-1.3-5.016 0-.938-.365-1.819-1.028-2.482l-.265-.265c-.239-.239-.707-.044-.707.293v2.21c0 1.055-.25 2.111-.721 3.055-.408.815-1.227 1.321-2.139 1.321-1.136 0-2.122-.809-2.344-1.922l-1.432-6.352c-.128-.569-.813-.885-1.322-.629l-.143.071c-.555.278-.899.835-.899 1.455 0 .155.022.309.065.456l1.931 6.593c.075.294.1.558.086.822-.075 1.405-1.236 2.506-2.644 2.506h-.438c-.551 0-1 .448-1 1s.449 1 1 1zm8.351 15.81c-1.089-1.361-1.597-3.021-1.523-4.675l-4.262-1.421c-.59.563-1.26 1.044-2.002 1.414-1.142.57-2.418.872-3.693.872h-2.287v2h2.601c1.244 0 2.362.691 2.919 1.804.348.696.436 1.495.247 2.251l-.744 2.975c-.015.062-.023.125-.023.189 0 .43.35.781.781.781h.647c.393 0 .726-.294.775-.684l.596-4.767c.088-.706.516-1.328 1.143-1.663.626-.335 1.379-.346 2.016-.025.572.284.991.806 1.146 1.429l.624 2.497 1.691-.422c.342-.086.581-.392.581-.745 0-.174-.06-.345-.168-.48zm15.987-15.774 3.016-7.036h-7.77v.858c0 1.003-.391 1.946-1.1 2.655-.173.174-.366.332-.572.47l-1.832 1.221c-.781.521-1.689.796-2.627.796-1.297 0-2.542-.542-3.43-1.471l-5.666 3.541c.758.592 1.227 1.506 1.227 2.508 0 .407-.077.807-.228 1.185l-.818 2.047c-.174.435-.387.85-.629 1.245l3.302 1.101c.142-.407.308-.807.528-1.192.636-1.113 1.451-2.1 2.394-2.944-.546-1.233-1.295-2.35-2.256-3.312l1.414-1.414c1.028 1.028 1.857 2.202 2.485 3.494.695-.433 1.432-.804 2.211-1.087l5.376-1.955c1.595-.583 3.294-.813 4.975-.71zm3.467.708.446.162 1.531-3.573-.526-.35c-.207-.138-.399-.296-.574-.471-.163-.163-.305-.341-.433-.527l-1.864 4.349c.48.111.955.241 1.42.41zm11.35 6.786c.091.144.188.284.273.433.22.385.387.786.528 1.192l3.302-1.101c-.242-.395-.455-.809-.629-1.245l-.154-.386zm5.448 2.184-4.262 1.421c.073 1.654-.435 3.314-1.523 4.675l-1.065 1.331c-.109.134-.169.305-.169.479 0 .353.239.659.582.745l1.69.422.624-2.497c.156-.623.575-1.145 1.149-1.431.632-.317 1.386-.307 2.013.027.627.335 1.055.957 1.143 1.663l.596 4.767c.049.39.382.684.775.684h.647c.431 0 .781-.351.781-.781 0-.063-.008-.127-.024-.19l-.743-2.974c-.188-.756-.101-1.555.247-2.251.557-1.113 1.675-1.804 2.919-1.804h2.601v-2h-2.287c-1.274 0-2.551-.302-3.692-.872-.742-.371-1.412-.852-2.002-1.414zm-.838-9.162c1.099-.366 2.244-.552 3.403-.552h4.416c.551 0 1-.448 1-1s-.449-1-1-1h-.438c-1.407 0-2.568-1.101-2.644-2.506-.014-.265.011-.528.076-.785l1.941-6.629c.043-.148.065-.302.065-.457 0-.62-.344-1.177-.898-1.454l-.141-.07c-.521-.261-1.197.059-1.324.628l-1.437 6.375c-.218 1.089-1.204 1.898-2.34 1.898-.912 0-1.731-.506-2.139-1.321-.472-.943-.721-2-.721-3.055v-2.21c0-.337-.466-.533-.708-.292l-.264.264c-.663.663-1.028 1.545-1.028 2.482 0 2.234-.738 4.449-2.079 6.236-.467.624-1.083 1.111-1.775 1.437l-1.851 4.447c1.523.666 2.88 1.644 3.994 2.861l3.878-1.293c-.102-.316-.167-.643-.167-.978 0-1.375.876-2.591 2.181-3.026z" fill="url(#SVGID_1_)"/></svg>